<?xml version="1.0" standalone="no"?><!DOCTYPE svg PUBLIC "-//W3C//DTD SVG 1.1//EN"
        "http://www.w3.org/Graphics/SVG/1.1/DTD/svg11.dtd">
<svg t="1731088914941" class="icon" viewBox="0 0 1024 1024" version="1.1" xmlns="http://www.w3.org/2000/svg"
     p-id="17045" xmlns:xlink="http://www.w3.org/1999/xlink" width="24" height="24">
    <path d="M800 128h-576A160 160 0 0 0 64 288v448A160 160 0 0 0 224 896h576a160 160 0 0 0 160-160v-448A160 160 0 0 0 800 128z m-576 64h576A96 96 0 0 1 896 288v448a96 96 0 0 1-96 96h-576A96 96 0 0 1 128 736v-448A96 96 0 0 1 224 192z"
          fill="#191919" p-id="17046"></path>
    <path d="M284.8 335.488a32 32 0 0 0-3.648 40.832l3.712 4.48L416 512l-131.2 131.2a32 32 0 0 0-3.712 40.832l3.712 4.48a32 32 0 0 0 40.768 3.712l4.48-3.712L474.88 543.68a44.8 44.8 0 0 0 4.032-58.752l-4.032-4.608-144.768-144.832a32 32 0 0 0-45.248 0zM736 640a32 32 0 0 1 5.76 63.488L736 704h-192a32 32 0 0 1-5.76-63.488L544 640h192z"
          fill="#191919" p-id="17047"></path>
</svg>